<svg width="61" height="61" fill="none" xmlns="http://www.w3.org/2000/svg"><circle cx="30.5" cy="30.5" r="30.5" fill="#fff"/><path d="M20.95 17.8c-.89 2.6-1.66 5.23-2.38 7.87-.56-2.8-.87-5.63-.93-8.48 0-.42-1.87-.1-1.86.5.12 4.09.69 8.15 1.68 12.1-1.15 4.46-2.23 8.94-3.46 13.4-.1.39 1.72.15 1.85-.33.86-3.17 1.65-6.36 2.45-9.54.79 3.12 1.6 6.24 2.2 9.4.1.5 1.93.05 1.86-.5-.82-4.34-2.04-8.6-3.03-12.9 1.03-3.97 2.13-7.93 3.45-11.86.12-.36-1.68-.14-1.83.34zM34.84 18.31c.05-.97-1.85-.78-1.93.12v.23a.57.57 0 00-.1.2 133.3 133.3 0 01-3.88 12.74c-.62 1.88-1.1 3.78-1.6 5.7-.13-6.47-.13-12.9-.16-19.33 0-.97-1.93-.75-1.93.14a683.26 683.26 0 00.29 24.62l.06.43c.11.84 1.92.47 1.92-.3 1.58-4.06 2.39-8.36 3.76-12.5l1.5-4.53c-.07 5.84.06 11.68.2 17.52 0 .97 1.53.74 1.84.05l.06-.11a.48.48 0 000-.54c-.24-8.23-.41-16.33-.03-24.44zM47.3 17.2c-3.03.29-6.1.3-9.13.05-.48 0-2.16.83-1.19.88l3.17.14c-.1.08-.17.17-.16.26.28 8.18-1.02 16.78.19 24.88.05.41 1.92 0 1.86-.5-1.19-8.01.06-16.55-.18-24.6a39.6 39.6 0 005.14-.26c.82-.08 1.61-1 .3-.85z" fill="#231F20"/></svg>