<svg width="16" height="27" fill="none" xmlns="http://www.w3.org/2000/svg"><path d="M16 15.6C15.63 7.94 8.86.52 8.55.2h-.04L8.43.1l-.1-.07H7.9L7.75 0h-.04l-.14.1-.08.07h-.04C7.15.52.37 7.95 0 15.6v1.04C.3 24.94 7.75 26.98 7.81 27h.2a.8.8 0 00.19 0c.07 0 7.51-2.08 7.8-10.35v-.87-.17zM2.04 12.77c1.55 1.38 3.3 2.5 5.18 3.31v3.67c-1.9-.98-4.82-2.71-5.68-4.23.07-.93.23-1.85.47-2.75h.03zM3.6 8.66a9.53 9.53 0 003.63 2.46v3.18a14.87 14.87 0 01-4.65-3.23c.3-.82.64-1.63 1.02-2.41zm9.84 2.41A14.83 14.83 0 018.8 14.3v-3.18a9.53 9.53 0 003.6-2.46c.39.77.74 1.57 1.04 2.38v.03zM8.8 9.41V2.97a36.44 36.44 0 012.82 4.17 7.08 7.08 0 01-2.84 2.24l.02.03zm0 10.35v-3.68c1.89-.8 3.65-1.92 5.2-3.3.24.9.39 1.83.45 2.76-.85 1.5-3.77 3.22-5.67 4.2l.02.02zM7.25 9.41A7.01 7.01 0 014.4 7.14c.85-1.47 1.8-2.88 2.83-4.21l.02 6.48zM1.7 18.06a25.91 25.91 0 005.52 3.46v3.55a9.14 9.14 0 01-3.61-2.77 9.65 9.65 0 01-1.9-4.24zm7.07 7.02V21.5a25.5 25.5 0 005.52-3.45 9.52 9.52 0 01-1.89 4.25 9 9 0 01-3.63 2.77z" fill="#323232"/></svg>