<svg width="16" height="26" fill="none" xmlns="http://www.w3.org/2000/svg"><path d="M9.59 4.12c0-1.1-.42-2.14-1.17-2.91a3.94 3.94 0 00-5.66 0A4.18 4.18 0 001.6 4.1v12a5.98 5.98 0 00.94 8.92 5.57 5.57 0 007.57-1.22 5.92 5.92 0 00.96-5.45 5.86 5.86 0 00-1.47-2.42V4.12zm.14 16.02a4.3 4.3 0 01-1.89 3.6 4 4 0 01-5.51-1.14 4.27 4.27 0 01.85-5.73V4.12c0-.66.25-1.29.7-1.76a2.37 2.37 0 013.41 0c.46.47.71 1.1.71 1.76v12.6a4.13 4.13 0 011.73 3.42z" fill="#323232"/><path d="M6.46 17.58V4.18a.83.83 0 00-.24-.58.78.78 0 00-1.12 0 .83.83 0 00-.23.58v13.4c-.53.2-.98.57-1.27 1.07a2.52 2.52 0 00.52 3.13 2.34 2.34 0 003.08 0 2.52 2.52 0 00.52-3.12 2.4 2.4 0 00-1.26-1.08zM16 3.2h-4.77v1.64H16V3.2zM16 6.48h-4.77v1.64H16V6.48zM16 9.75h-4.77v1.64H16V9.75zM16 13.03h-4.77v1.64H16v-1.64z" fill="#323232"/></svg>